<svg width="19" height="19" viewBox="0 0 19 19" fill="none" xmlns="http://www.w3.org/2000/svg">
<path d="M9.5 18C14.1944 18 18 13.839 18 11C18 8.161 14.1944 4 9.5 4C4.80564 4 1 8.164 1 11C1 13.836 4.80564 18 9.5 18Z" stroke="#005EB8" stroke-width="2" stroke-linejoin="round"/>
<path d="M9.50033 14C10.2518 14 10.9724 13.6839 11.5038 13.1213C12.0351 12.5587 12.3337 11.7956 12.3337 11C12.3337 10.2044 12.0351 9.44129 11.5038 8.87868C10.9724 8.31607 10.2518 8 9.50033 8C8.74888 8 8.02821 8.31607 7.49686 8.87868C6.9655 9.44129 6.66699 10.2044 6.66699 11C6.66699 11.7956 6.9655 12.5587 7.49686 13.1213C8.02821 13.6839 8.74888 14 9.50033 14Z" stroke="#005EB8" stroke-width="2" stroke-linejoin="round"/>
<path d="M4.43066 3.133L5.65561 4.943M14.99 3.355L13.7646 5.165M9.50469 1V4" stroke="#005EB8" stroke-width="2" stroke-linecap="round"/>
</svg>
