<svg width="30" height="30" viewBox="0 0 30 30" fill="none" xmlns="http://www.w3.org/2000/svg">
<path d="M14.2439 2.62866C14.4446 2.41401 14.7167 2.29345 15.0003 2.29345C15.284 2.29345 15.5561 2.41401 15.7568 2.62866L28.1599 15.9094C28.2587 16.0188 28.3769 16.106 28.5075 16.166C28.6381 16.226 28.7786 16.2576 28.9207 16.2588C29.0629 16.2601 29.2038 16.231 29.3354 16.1733C29.4669 16.1156 29.5864 16.0305 29.6868 15.9228C29.7873 15.8151 29.8667 15.6871 29.9205 15.5462C29.9742 15.4053 30.0013 15.2544 30 15.1022C29.9987 14.95 29.9691 14.7996 29.9129 14.6598C29.8567 14.52 29.7751 14.3935 29.6728 14.2879L17.2712 1.00716C16.973 0.687852 16.6189 0.434562 16.2293 0.261753C15.8397 0.0889438 15.4221 0 15.0003 0C14.5786 0 14.161 0.0889438 13.7714 0.261753C13.3818 0.434562 13.0277 0.687852 12.7295 1.00716L0.326432 14.2879C0.22424 14.3936 0.142746 14.5202 0.0867064 14.66C0.0306669 14.7999 0.00120377 14.9503 3.61223e-05 15.1025C-0.00113152 15.2547 0.0260197 15.4056 0.0799055 15.5465C0.133791 15.6873 0.213333 15.8152 0.313889 15.9228C0.414444 16.0304 0.534001 16.1154 0.665581 16.173C0.797162 16.2305 0.938132 16.2595 1.08027 16.2581C1.2224 16.2567 1.36285 16.225 1.49343 16.1649C1.624 16.1047 1.74208 16.0173 1.84078 15.9078L14.2439 2.62866Z" fill="black" fill-opacity="0.4"/>
<path d="M15.0007 5.06006L26.6459 17.5292C26.6887 17.5741 26.732 17.6179 26.7758 17.6607V27.1329C26.7758 28.7147 25.5769 29.9984 24.0996 29.9984H19.2825C18.9986 29.9984 18.7264 29.8777 18.5256 29.6627C18.3249 29.4477 18.2121 29.1562 18.2121 28.8522V21.975C18.2121 21.671 18.0993 21.3794 17.8985 21.1645C17.6978 20.9495 17.4255 20.8288 17.1416 20.8288H12.8598C12.5759 20.8288 12.3036 20.9495 12.1028 21.1645C11.9021 21.3794 11.7893 21.671 11.7893 21.975V28.8522C11.7893 29.1562 11.6765 29.4477 11.4758 29.6627C11.275 29.8777 11.0027 29.9984 10.7188 29.9984H5.90175C5.19198 29.9984 4.51129 29.6965 4.00941 29.1591C3.50754 28.6217 3.22559 27.8929 3.22559 27.1329V17.6607L3.35547 17.5292L15.0007 5.06006Z" fill="black" fill-opacity="0.4"/>
</svg>
