<svg width="24" height="24" viewBox="0 0 24 24" fill="none" xmlns="http://www.w3.org/2000/svg">
<path d="M10.065 3.22238C10.2132 2.85602 10.4675 2.54228 10.7952 2.32136C11.1229 2.10044 11.5091 1.98242 11.9043 1.98242C12.2995 1.98242 12.6857 2.10044 13.0134 2.32136C13.3411 2.54228 13.5954 2.85602 13.7436 3.22238C15.2109 3.62539 16.5052 4.49915 17.4275 5.70935C18.3498 6.91955 18.8492 8.39918 18.8488 9.92079V14.5805L20.6662 17.3067C20.7659 17.4561 20.8231 17.6298 20.8319 17.8092C20.8406 17.9886 20.8004 18.167 20.7157 18.3253C20.631 18.4837 20.5048 18.6161 20.3507 18.7084C20.1967 18.8007 20.0204 18.8494 19.8408 18.8494H15.3418C15.2224 19.6759 14.8091 20.4316 14.1778 20.9783C13.5465 21.5249 12.7394 21.8258 11.9043 21.8258C11.0692 21.8258 10.2621 21.5249 9.63079 20.9783C8.99948 20.4316 8.58625 19.6759 8.46681 18.8494H3.9678C3.78819 18.8494 3.61195 18.8007 3.45787 18.7084C3.30379 18.6161 3.17765 18.4837 3.09292 18.3253C3.00819 18.167 2.96804 17.9886 2.97675 17.8092C2.98547 17.6298 3.04272 17.4561 3.1424 17.3067L4.95986 14.5805V9.92079C4.95986 6.72238 7.12256 4.02794 10.065 3.22238ZM10.5015 18.8494C10.604 19.1397 10.794 19.3911 11.0453 19.5689C11.2966 19.7467 11.5969 19.8422 11.9048 19.8422C12.2127 19.8422 12.513 19.7467 12.7643 19.5689C13.0156 19.3911 13.2056 19.1397 13.3081 18.8494H10.5015ZM11.9043 4.96047C10.5887 4.96047 9.32707 5.48308 8.39683 6.41332C7.46659 7.34356 6.94399 8.60523 6.94399 9.92079V14.8811C6.94403 15.0771 6.88604 15.2687 6.77732 15.4317L5.82196 16.8652H17.9857L17.0303 15.4317C16.9219 15.2686 16.8643 15.077 16.8646 14.8811V9.92079C16.8646 8.60523 16.342 7.34356 15.4118 6.41332C14.4815 5.48308 13.2199 4.96047 11.9043 4.96047Z" fill="#005EB8"/>
</svg>
