<svg width="30" height="30" viewBox="0 0 30 30" fill="none" xmlns="http://www.w3.org/2000/svg">
<path fill-rule="evenodd" clip-rule="evenodd" d="M15.0029 9.76758C13.5372 9.76758 12.1316 10.3189 11.0952 11.3002C10.0588 12.2815 9.47656 13.6124 9.47656 15.0001C9.47656 16.3879 10.0588 17.7188 11.0952 18.7001C12.1316 19.6814 13.5372 20.2327 15.0029 20.2327C16.4686 20.2327 17.8743 19.6814 18.9107 18.7001C19.947 17.7188 20.5293 16.3879 20.5293 15.0001C20.5293 13.6124 19.947 12.2815 18.9107 11.3002C17.8743 10.3189 16.4686 9.76758 15.0029 9.76758ZM11.6871 15.0001C11.6871 14.1675 12.0365 13.3689 12.6583 12.7801C13.2801 12.1914 14.1235 11.8606 15.0029 11.8606C15.8823 11.8606 16.7257 12.1914 17.3476 12.7801C17.9694 13.3689 18.3187 14.1675 18.3187 15.0001C18.3187 15.8328 17.9694 16.6313 17.3476 17.2201C16.7257 17.8089 15.8823 18.1397 15.0029 18.1397C14.1235 18.1397 13.2801 17.8089 12.6583 17.2201C12.0365 16.6313 11.6871 15.8328 11.6871 15.0001Z" fill="black" fill-opacity="0.4"/>
<path fill-rule="evenodd" clip-rule="evenodd" d="M14.9632 0C14.3074 0 13.7606 -2.59904e-08 13.3126 0.0279069C12.8546 0.0453717 12.4029 0.134971 11.976 0.293023C11.4841 0.485706 11.0372 0.768242 10.6607 1.12449C10.2842 1.48075 9.98547 1.90373 9.78164 2.3693C9.56795 2.85767 9.51048 3.37395 9.4869 3.93488C9.48427 4.13998 9.4268 4.34109 9.31985 4.51946C9.2129 4.69783 9.05996 4.84763 8.87532 4.95488C8.68495 5.05301 8.47142 5.10383 8.25468 5.10261C8.03794 5.10139 7.82506 5.04817 7.63594 4.94791C7.1113 4.68558 6.61025 4.47488 6.05614 4.40512C5.52847 4.3394 4.9923 4.37273 4.47824 4.50321C3.96418 4.63369 3.4823 4.85877 3.06011 5.16558C2.70258 5.43695 2.39529 5.7628 2.15084 6.12977C1.90031 6.48419 1.6262 6.93209 1.29904 7.4693L1.2622 7.5307C0.933566 8.06791 0.660932 8.51581 0.463457 8.89814C0.257139 9.29721 0.0950324 9.6907 0.0360845 10.126C-0.104506 11.1349 0.183866 12.1553 0.837776 12.9628C1.1782 13.3828 1.62178 13.6884 2.12284 13.987C2.30946 14.0917 2.46495 14.2396 2.57474 14.4168C2.68454 14.594 2.74506 14.7946 2.75063 15C2.74506 15.2054 2.68454 15.406 2.57474 15.5832C2.46495 15.7604 2.30946 15.9083 2.12284 16.013C1.62178 16.3116 1.17967 16.6172 0.837776 17.0372C0.513734 17.437 0.276024 17.8932 0.138216 18.3799C0.000408858 18.8667 -0.0347962 19.3743 0.0346109 19.874C0.0950325 20.3093 0.255665 20.7028 0.461983 21.1019C0.660932 21.4842 0.933566 21.9321 1.2622 22.4693L1.29904 22.5307C1.6262 23.0679 1.90031 23.5158 2.15084 23.8702C2.41168 24.2372 2.69169 24.5679 3.06011 24.833C3.48219 25.1401 3.96402 25.3654 4.47808 25.4961C4.99215 25.6268 5.52837 25.6604 6.05614 25.5949C6.61025 25.5251 7.1113 25.3158 7.63594 25.0521C7.82488 24.9521 8.03749 24.899 8.25394 24.8978C8.4704 24.8966 8.68366 24.9472 8.87384 25.0451C9.05999 25.151 9.21427 25.3005 9.32188 25.4791C9.42949 25.6577 9.48682 25.8595 9.48837 26.0651C9.51048 26.626 9.56795 27.1423 9.78311 27.6307C9.98662 28.0964 10.285 28.5196 10.6613 28.8761C11.0375 29.2326 11.4843 29.5154 11.976 29.7084C12.4033 29.8758 12.8455 29.9414 13.3126 29.9707C13.7606 30 14.3074 30 14.9632 30H15.0368C15.6926 30 16.2394 30 16.6874 29.9721C17.156 29.9414 17.5967 29.8758 18.024 29.707C18.5159 29.5143 18.9628 29.2318 19.3393 28.8755C19.7158 28.5193 20.0145 28.0963 20.2184 27.6307C20.432 27.1423 20.4895 26.626 20.5131 26.0651C20.5155 25.8598 20.5728 25.6584 20.6798 25.4798C20.7868 25.3011 20.9398 25.1511 21.1247 25.0437C21.3152 24.9458 21.5288 24.8952 21.7455 24.8967C21.9623 24.8982 22.1751 24.9516 22.3641 25.0521C22.8887 25.3144 23.3898 25.5251 23.9439 25.5935C25.0093 25.7266 26.087 25.4536 26.9399 24.8344C27.3083 24.5665 27.5883 24.2372 27.8492 23.8702C28.0997 23.5158 28.3738 23.0679 28.701 22.5307L28.7378 22.4693C29.0664 21.9321 29.3391 21.4842 29.5365 21.1019C29.7429 20.7028 29.905 20.3079 29.9639 19.874C30.1045 18.8651 29.8161 17.8447 29.1622 17.0372C28.8218 16.6172 28.3782 16.3116 27.8772 16.013C27.6905 15.9083 27.5351 15.7604 27.4253 15.5832C27.3155 15.406 27.2549 15.2054 27.2494 15C27.2494 14.6121 27.4734 14.227 27.8772 13.987C28.3782 13.6884 28.8203 13.3828 29.1622 12.9628C29.4863 12.563 29.724 12.1068 29.8618 11.6201C29.9996 11.1333 30.0348 10.6257 29.9654 10.126C29.8959 9.69711 29.7515 9.28213 29.538 8.89814C29.2863 8.43457 29.0195 7.97854 28.7378 7.5307L28.701 7.4693C28.4318 7.01453 28.1477 6.5678 27.8492 6.12977C27.6046 5.7633 27.2973 5.43792 26.9399 5.16698C26.5178 4.85992 26.036 4.63459 25.5219 4.50387C25.0079 4.37315 24.4716 4.33959 23.9439 4.40512C23.3898 4.47488 22.8887 4.68419 22.3641 4.94791C22.1751 5.04792 21.9625 5.10101 21.7461 5.10223C21.5296 5.10345 21.3163 5.05276 21.1262 4.95488C20.941 4.84797 20.7874 4.69831 20.68 4.51992C20.5725 4.34153 20.5146 4.14024 20.5116 3.93488C20.4895 3.37395 20.432 2.85767 20.2169 2.3693C20.0134 1.9036 19.715 1.48043 19.3387 1.12393C18.9625 0.767443 18.5157 0.484624 18.024 0.291628C17.5967 0.124186 17.1545 0.0586047 16.6874 0.0293024C16.2394 3.89856e-08 15.6926 0 15.0368 0H14.9632ZM12.8219 2.22558C12.9354 2.18093 13.1078 2.14047 13.4629 2.11674C13.8269 2.09302 14.2985 2.09302 15 2.09302C15.7015 2.09302 16.1731 2.09302 16.5371 2.11674C16.8922 2.14047 17.0646 2.18093 17.1781 2.22558C17.6305 2.40279 17.9887 2.74186 18.1758 3.17023C18.2348 3.30419 18.2834 3.51488 18.3026 4.01302C18.3468 5.11814 18.9495 6.18279 20.0194 6.76744C21.0893 7.35209 22.3641 7.31442 23.3971 6.79814C23.8628 6.56512 24.0794 6.49953 24.2327 6.4814C24.7169 6.42081 25.2067 6.54478 25.5944 6.82605C25.6917 6.89721 25.8155 7.0186 26.0144 7.29767C26.2193 7.58512 26.455 7.97163 26.8058 8.54651C27.1565 9.1214 27.3908 9.5093 27.5515 9.81907C27.7092 10.1219 27.7578 10.2837 27.7725 10.3995C27.8365 10.858 27.7056 11.3218 27.4085 11.6888C27.3142 11.8047 27.1462 11.9498 26.7012 12.2149C25.7108 12.8037 25.0388 13.8307 25.0388 15C25.0388 16.1693 25.7108 17.1963 26.7012 17.7851C27.1462 18.0502 27.3142 18.1953 27.4085 18.3112C27.7062 18.6781 27.8359 19.1414 27.7725 19.6005C27.7578 19.7163 27.7077 19.8795 27.5515 20.1809C27.3908 20.4921 27.1565 20.8786 26.8058 21.4535C26.455 22.0284 26.2178 22.4149 26.0144 22.7023C25.8155 22.9814 25.6917 23.1028 25.5944 23.174C25.2067 23.4552 24.7169 23.5792 24.2327 23.5186C24.0794 23.5005 23.8643 23.4349 23.3971 23.2019C22.3655 22.6856 21.0893 22.6465 20.0194 23.2312C18.9495 23.8158 18.3468 24.8819 18.3026 25.987C18.2834 26.4851 18.2348 26.6958 18.1758 26.8298C18.0832 27.0416 17.9475 27.234 17.7763 27.3961C17.6051 27.5582 17.4018 27.6868 17.1781 27.7744C17.0646 27.8191 16.8922 27.8595 16.5371 27.8833C16.1731 27.907 15.7015 27.907 15 27.907C14.2985 27.907 13.8269 27.907 13.4629 27.8833C13.1078 27.8595 12.9354 27.8191 12.8219 27.7744C12.5982 27.6868 12.3949 27.5582 12.2237 27.3961C12.0525 27.234 11.9168 27.0416 11.8242 26.8298C11.7652 26.6958 11.7166 26.4851 11.6974 25.987C11.6532 24.8819 11.0505 23.8172 9.98059 23.2326C8.91069 22.6479 7.63594 22.6856 6.60288 23.2019C6.13719 23.4349 5.92056 23.5005 5.76729 23.5186C5.28309 23.5792 4.79329 23.4552 4.40559 23.174C4.30833 23.1028 4.18454 22.9814 3.98559 22.7023C3.70836 22.2938 3.44445 21.8773 3.19422 21.4535C2.84348 20.8786 2.60916 20.4907 2.44853 20.1809C2.29084 19.8781 2.24221 19.7163 2.22747 19.6005C2.16349 19.142 2.29442 18.6782 2.59147 18.3112C2.68579 18.1953 2.85379 18.0502 3.29885 17.7851C4.28917 17.1963 4.96118 16.1693 4.96118 15C4.96118 13.8307 4.28917 12.8037 3.29885 12.2149C2.85379 11.9498 2.68579 11.8047 2.59147 11.6888C2.29442 11.3218 2.16349 10.858 2.22747 10.3995C2.24221 10.2837 2.29231 10.1205 2.44853 9.81907C2.60916 9.50791 2.84348 9.1214 3.19422 8.54651C3.54496 7.97163 3.78222 7.58512 3.98559 7.29767C4.18454 7.0186 4.30833 6.89721 4.40559 6.82605C4.79329 6.54478 5.28309 6.42081 5.76729 6.4814C5.92056 6.49953 6.13572 6.56512 6.60288 6.79814C7.63446 7.31442 8.91069 7.35349 9.98059 6.76744C11.0505 6.18279 11.6532 5.11814 11.6974 4.01302C11.7166 3.51488 11.7652 3.30419 11.8242 3.17023C12.0113 2.74186 12.3695 2.40279 12.8219 2.22558Z" fill="black" fill-opacity="0.4"/>
</svg>
