<svg width="18" height="18" viewBox="0 0 18 18" fill="none" xmlns="http://www.w3.org/2000/svg">
<path d="M8.88392 14.2857C9.19642 14.2857 9.46071 14.1777 9.67678 13.9616C9.89285 13.7455 10.0006 13.4815 9.99999 13.1696C9.9994 12.8577 9.89166 12.5934 9.67678 12.3768C9.4619 12.1601 9.19761 12.0524 8.88392 12.0536C8.57023 12.0547 8.30624 12.1628 8.09196 12.3777C7.87767 12.5925 7.76964 12.8565 7.76785 13.1696C7.76607 13.4827 7.8741 13.747 8.09196 13.9625C8.30982 14.178 8.5738 14.2857 8.88392 14.2857ZM8.08035 10.8482H9.73214C9.73214 10.3571 9.78809 9.97023 9.89999 9.68749C10.0119 9.40475 10.328 9.01785 10.8482 8.52678C11.2351 8.13987 11.5402 7.77142 11.7634 7.42142C11.9866 7.07142 12.0982 6.65119 12.0982 6.16071C12.0982 5.32738 11.7931 4.6875 11.183 4.24107C10.5729 3.79464 9.85118 3.57143 9.01785 3.57143C8.16964 3.57143 7.48154 3.79464 6.95357 4.24107C6.42559 4.6875 6.05714 5.22321 5.84821 5.84821L7.32142 6.42857C7.39583 6.16071 7.56339 5.87053 7.8241 5.55803C8.08482 5.24553 8.48273 5.08928 9.01785 5.08928C9.49404 5.08928 9.85118 5.21964 10.0893 5.48035C10.3274 5.74107 10.4464 6.02738 10.4464 6.33928C10.4464 6.6369 10.3571 6.91607 10.1786 7.17678C9.99999 7.43749 9.77678 7.67916 9.50892 7.90178C8.85416 8.48214 8.45238 8.92112 8.30357 9.21874C8.15476 9.51636 8.08035 10.0595 8.08035 10.8482ZM8.92857 17.8571C7.69345 17.8571 6.53273 17.6229 5.44643 17.1544C4.36012 16.686 3.41518 16.0497 2.61161 15.2455C1.80804 14.4414 1.17202 13.4964 0.703572 12.4107C0.23512 11.325 0.000596368 10.1643 1.1302e-06 8.92856C-0.000594107 7.69285 0.23393 6.53214 0.703572 5.44643C1.17321 4.36071 1.80923 3.41577 2.61161 2.61161C3.41399 1.80744 4.35893 1.17143 5.44643 0.703575C6.53393 0.235719 7.69464 0.00119498 8.92857 4.50937e-06C10.1625 -0.00118597 11.3232 0.233338 12.4107 0.703575C13.4982 1.17381 14.4431 1.80982 15.2455 2.61161C16.0479 3.41339 16.6842 4.35833 17.1545 5.44643C17.6247 6.53452 17.8589 7.69523 17.8571 8.92856C17.8553 10.1619 17.6208 11.3226 17.1536 12.4107C16.6863 13.4988 16.0503 14.4437 15.2455 15.2455C14.4408 16.0473 13.4958 16.6836 12.4107 17.1544C11.3256 17.6253 10.1649 17.8595 8.92857 17.8571ZM8.92857 16.0714C10.9226 16.0714 12.6116 15.3794 13.9955 13.9955C15.3795 12.6116 16.0714 10.9226 16.0714 8.92856C16.0714 6.93452 15.3795 5.24553 13.9955 3.86161C12.6116 2.47768 10.9226 1.78572 8.92857 1.78572C6.93452 1.78572 5.24553 2.47768 3.86161 3.86161C2.47768 5.24553 1.78571 6.93452 1.78571 8.92856C1.78571 10.9226 2.47768 12.6116 3.86161 13.9955C5.24553 15.3794 6.93452 16.0714 8.92857 16.0714Z" fill="#005EB8"/>
</svg>
