<svg width="20" height="20" viewBox="0 0 20 20" fill="none" xmlns="http://www.w3.org/2000/svg">
<path d="M0.892578 9.82164C0.892578 12.1896 1.83326 14.4607 3.5077 16.1351C5.18213 17.8095 7.45314 18.7502 9.82115 18.7502V0.893066C7.45314 0.893066 5.18213 1.83375 3.5077 3.50818C1.83326 5.18262 0.892578 7.45363 0.892578 9.82164Z" fill="#005EB8"/>
<path d="M9.82115 18.7502C12.1892 18.7502 14.4602 17.8095 16.1346 16.1351C17.809 14.4607 18.7497 12.1896 18.7497 9.82164C18.7497 7.45363 17.809 5.18262 16.1346 3.50818C14.4602 1.83375 12.1892 0.893066 9.82115 0.893066M9.82115 18.7502C7.45314 18.7502 5.18213 17.8095 3.5077 16.1351C1.83326 14.4607 0.892578 12.1896 0.892578 9.82164C0.892578 7.45363 1.83326 5.18262 3.5077 3.50818C5.18213 1.83375 7.45314 0.893066 9.82115 0.893066M9.82115 18.7502V0.893066" stroke="#005EB8" stroke-width="1.78571" stroke-linecap="round" stroke-linejoin="round"/>
</svg>
