<svg width="18" height="18" viewBox="0 0 18 18" fill="none" xmlns="http://www.w3.org/2000/svg">
<path d="M14.1964 13.7411C13.9643 13.0268 13.2946 12.5 12.5 12.5H11.6071V9.82143C11.6071 9.58463 11.5131 9.35753 11.3456 9.19008C11.1782 9.02264 10.9511 8.92857 10.7143 8.92857H5.35714V7.14286H7.14286C7.37966 7.14286 7.60676 7.04879 7.7742 6.88134C7.94164 6.7139 8.03571 6.4868 8.03571 6.25V4.46429H9.82143C10.295 4.46429 10.7492 4.27615 11.0841 3.94126C11.419 3.60638 11.6071 3.15217 11.6071 2.67857V2.3125C12.6754 2.74318 13.6234 3.42632 14.37 4.30342C15.1166 5.18053 15.6395 6.22549 15.8941 7.34885C16.1486 8.47221 16.1271 9.64051 15.8314 10.7538C15.5358 11.867 14.9748 12.892 14.1964 13.7411ZM8.03571 16.0089C4.50893 15.5714 1.78571 12.5714 1.78571 8.92857C1.78571 8.375 1.85714 7.83929 1.97321 7.33036L6.25 11.6071V12.5C6.25 12.9736 6.43814 13.4278 6.77302 13.7627C7.10791 14.0976 7.56211 14.2857 8.03571 14.2857M8.92857 0C7.75605 0 6.59502 0.230944 5.51175 0.679647C4.42849 1.12835 3.44421 1.78602 2.61512 2.61512C0.940686 4.28955 0 6.56057 0 8.92857C0 11.2966 0.940686 13.5676 2.61512 15.242C3.44421 16.0711 4.42849 16.7288 5.51175 17.1775C6.59502 17.6262 7.75605 17.8571 8.92857 17.8571C11.2966 17.8571 13.5676 16.9165 15.242 15.242C16.9165 13.5676 17.8571 11.2966 17.8571 8.92857C17.8571 7.75605 17.6262 6.59502 17.1775 5.51175C16.7288 4.42849 16.0711 3.44421 15.242 2.61512C14.4129 1.78602 13.4287 1.12835 12.3454 0.679647C11.2621 0.230944 10.1011 0 8.92857 0Z" fill="#005EB8"/>
</svg>
